<?xml version="1.0" encoding="utf-8" standalone="no"?><!DOCTYPE svg PUBLIC "-//W3C//DTD SVG 20010904//EN" "http://www.w3.org/TR/2001/REC-SVG-20010904/DTD/svg10.dtd"><svg xmlns="http://www.w3.org/2000/svg" width="905" height="655" xmlns:xlink="http://www.w3.org/1999/xlink"><source><![CDATA[client->puppetmaster: client connects, cert validated
puppetmaster->client: plugins sync'ed from master
Note left of client: client evaluates facts
client->puppetmaster: fact evaluation results
puppetmaster->puppetdb: replace facts
Note right of puppetmaster: puppetmaster compiles catalog
puppetmaster->puppetdb: replace catalog
puppetmaster->client: compiled catalog
Note left of client: client applies catalog
client->puppetmaster: client sends report to master
puppetmaster->puppetdb: store report
]]></source><desc></desc><defs><marker viewBox="0 0 5 5" markerWidth="5" markerHeight="5" orient="auto" refX="5" refY="2.5" id="markerArrowBlock"><path d="M 0 0 L 5 2.5 L 0 5 z"></path></marker><marker viewBox="0 0 9.6 16" markerWidth="4" markerHeight="16" orient="auto" refX="9.6" refY="8" id="markerArrowOpen"><path d="M 9.6,8 1.92,16 0,13.7 5.76,8 0,2.286 1.92,0 9.6,8 z"></path></marker></defs><g class="title"></g><g class="actor"><path d="M197.49166107177734,20C224.9,22.6 216.8,17.4 261.8,20.0C260.0,57.0 263.6,27.1 261.8,64.0C246.4,66.6 229.7,61.4 197.5,64.0C199.3,40.2 195.7,57.0 197.5,20.0" style="stroke-width: 2;" stroke="#000000" fill="#ffffff"></path><text x="207.99166107177734" y="47.18333339691162" style="font-size: 16px; font-family: danielbd;"><tspan x="207.49166107177734">client</tspan></text></g><g class="actor"><path d="M197.49166107177734,591.0833396911621C246.4,588.5 246.1,593.7 261.8,591.1C263.6,601.6 260.0,611.6 261.8,635.1C239.5,637.7 212.9,632.5 197.5,635.1C195.7,612.5 199.3,604.7 197.5,591.1" style="stroke-width: 2;" stroke="#000000" fill="#ffffff"></path><text x="207.99166107177734" y="618.2666730880737" style="font-size: 16px; font-family: danielbd;"><tspan x="207.49166107177734">client</tspan></text></g><path d="M229.6,64.0C250.7,382.7 208.6,313.3 229.6,591.1" style="stroke-width: 2;" stroke="#000000" fill="none"></path><g class="actor"><path d="M436.0249786376953,20C458.9,14.3 470.4,25.7 579.1,20.0C580.9,30.6 577.4,27.0 579.1,64.0C528.7,58.3 477.4,69.7 436.0,64.0C437.8,57.0 434.3,27.0 436.0,20.0" style="stroke-width: 2;" stroke="#000000" fill="#ffffff"></path><text x="446.5249786376953" y="43.266666412353516" style="font-size: 16px; font-family: danielbd;"><tspan x="446.0249786376953">puppetmaster</tspan></text></g><g class="actor"><path d="M436.0249786376953,591.0833396911621C458.9,596.8 556.2,585.4 579.1,591.1C580.9,598.1 577.4,601.6 579.1,635.1C556.2,640.8 537.5,629.4 436.0,635.1C437.8,601.6 434.3,624.5 436.0,591.1" style="stroke-width: 2;" stroke="#000000" fill="#ffffff"></path><text x="446.5249786376953" y="614.3500061035156" style="font-size: 16px; font-family: danielbd;"><tspan x="446.0249786376953">puppetmaster</tspan></text></g><path d="M507.6,64.0C528.7,338.3 486.5,506.8 507.6,591.1" style="stroke-width: 2;" stroke="#000000" fill="none"></path><g class="actor"><path d="M772.1499938964844,20C834.5,24.1 823.0,15.9 875.6,20.0C873.9,53.5 877.4,57.0 875.6,64.0C788.7,68.2 797.0,59.9 772.1,64.0C770.4,53.5 773.9,45.9 772.1,20.0" style="stroke-width: 2;" stroke="#000000" fill="#ffffff"></path><text x="782.6499938964844" y="43.516666412353516" style="font-size: 16px; font-family: danielbd;"><tspan x="782.1499938964844">puppetdb</tspan></text></g><g class="actor"><path d="M772.1499938964844,591.0833396911621C850.8,595.2 797.0,586.9 875.6,591.1C873.9,617.1 877.4,623.4 875.6,635.1C857.0,639.2 788.7,631.0 772.1,635.1C773.9,624.5 770.4,628.1 772.1,591.1" style="stroke-width: 2;" stroke="#000000" fill="#ffffff"></path><text x="782.6499938964844" y="614.6000061035156" style="font-size: 16px; font-family: danielbd;"><tspan x="782.1499938964844">puppetdb</tspan></text></g><path d="M823.9,64.0C845.0,464.6 802.8,506.8 823.9,591.1" style="stroke-width: 2;" stroke="#000000" fill="none"></path><g class="signal"><text x="243.066650390625" y="94.19166660308838" style="font-size: 16px; font-family: danielbd;"><tspan x="242.566650390625">client connects, cert validated</tspan></text><path d="M229.6,101.4C378.1,90.2 296.4,112.5 507.6,101.4" style="stroke-width: 2; marker-end: url(&quot;#markerArrowBlock&quot;);" stroke="#000000" fill="none"></path></g><g class="signal"><text x="245.99998474121094" y="126.93333339691162" style="font-size: 16px; font-family: danielbd;"><tspan x="245.49998474121094">plugins sync'ed from master</tspan></text><path d="M507.6,147.9C435.2,136.8 296.4,159.1 229.6,147.9" style="stroke-width: 2; marker-end: url(&quot;#markerArrowBlock&quot;);" stroke="#000000" fill="none"></path></g><g class="note"><path d="M20,167.93333435058594C162.8,175.5 65.5,160.3 209.6,167.9C208.6,186.9 210.7,182.3 209.6,195.3C54.1,187.7 137.6,202.9 20.0,195.3C18.9,172.3 21.1,174.5 20.0,167.9" style="stroke-width: 2;" stroke="#000000" fill="#ffffff"></path><text x="25.5" y="186.78333473205566" style="font-size: 16px; font-family: danielbd;"><tspan x="25">client evaluates facts</tspan></text></g><g class="signal"><text x="272.3416519165039" y="225.45833492279053" style="font-size: 16px; font-family: danielbd;"><tspan x="271.8416519165039">fact evaluation results</tspan></text><path d="M229.6,232.6C463.1,243.8 322.3,221.5 507.6,232.6" style="stroke-width: 2; marker-end: url(&quot;#markerArrowBlock&quot;);" stroke="#000000" fill="none"></path></g><g class="signal"><text x="609.5666542053223" y="259.30833530426025" style="font-size: 16px; font-family: danielbd;"><tspan x="609.0666542053223">replace facts</tspan></text><path d="M507.6,277.0C675.6,264.3 666.4,289.6 823.9,277.0" style="stroke-width: 2; marker-end: url(&quot;#markerArrowBlock&quot;);" stroke="#000000" fill="none"></path></g><g class="note"><path d="M527.5833129882812,296.9833354949951C685.8,285.9 755.0,308.0 803.9,297.0C802.4,305.9 805.4,307.1 803.9,333.6C737.6,322.5 593.9,344.6 527.6,333.6C529.0,320.4 526.1,324.8 527.6,297.0" style="stroke-width: 2;" stroke="#000000" fill="#ffffff"></path><text x="533.0833129882812" y="315.83333587646484" style="font-size: 16px; font-family: danielbd;"><tspan x="532.5833129882812">puppetmaster compiles catalog</tspan></text></g><g class="signal"><text x="603.2749862670898" y="359.1166696548462" style="font-size: 16px; font-family: danielbd;"><tspan x="602.7749862670898">replace catalog</tspan></text><path d="M507.6,380.1C675.2,392.8 614.4,367.5 823.9,380.1" style="stroke-width: 2; marker-end: url(&quot;#markerArrowBlock&quot;);" stroke="#000000" fill="none"></path></g><g class="signal"><text x="298.97498321533203" y="405.6833372116089" style="font-size: 16px; font-family: danielbd;"><tspan x="298.47498321533203">compiled catalog</tspan></text><path d="M507.6,426.7C441.9,415.6 328.2,437.8 229.6,426.7" style="stroke-width: 2; marker-end: url(&quot;#markerArrowBlock&quot;);" stroke="#000000" fill="none"></path></g><g class="note"><path d="M27.383331298828125,446.6833381652832C58.6,454.0 71.1,439.4 209.6,446.7C211.1,461.6 208.2,474.4 209.6,483.3C121.5,476.0 56.5,490.5 27.4,483.3C25.9,452.5 28.8,477.4 27.4,446.7" style="stroke-width: 2;" stroke="#000000" fill="#ffffff"></path><text x="32.883331298828125" y="465.53333854675293" style="font-size: 16px; font-family: danielbd;"><tspan x="32.383331298828125">client applies catalog</tspan></text></g><g class="signal"><text x="240.14999389648438" y="509.92500591278076" style="font-size: 16px; font-family: danielbd;"><tspan x="239.64999389648438">client sends report to master</tspan></text><path d="M229.6,527.6C340.7,538.7 440.9,516.5 507.6,527.6" style="stroke-width: 2; marker-end: url(&quot;#markerArrowBlock&quot;);" stroke="#000000" fill="none"></path></g><g class="signal"><text x="609.6749877929688" y="553.8583393096924" style="font-size: 16px; font-family: danielbd;"><tspan x="609.1749877929688">store report</tspan></text><path d="M507.6,571.1C748.0,583.7 615.6,558.4 823.9,571.1" style="stroke-width: 2; marker-end: url(&quot;#markerArrowBlock&quot;);" stroke="#000000" fill="none"></path></g></svg>